<?xml version="1.0" encoding="utf-8"?>
<svg xmlns="http://www.w3.org/2000/svg"
	xmlns:xlink="http://www.w3.org/1999/xlink"
	width="21px" height="21px" viewBox="0 0 21 21">
<path fillRule="evenodd" d="M 6.84 8.79C 6.84 8.79 9.11 6.52 9.11 6.52 9.11 6.52 15.51 12.97 15.51 12.97 15.51 12.97 16.64 16.33 16.64 16.33 16.64 16.33 13.29 15.2 13.29 15.2 13.29 15.2 6.84 8.79 6.84 8.79ZM 3.87 5.82C 3.56 5.51 3.4 5.13 3.4 4.69 3.4 4.25 3.56 3.87 3.87 3.55 4.18 3.24 4.56 3.09 5 3.09 5.45 3.09 5.82 3.24 6.14 3.55 6.14 3.55 7.78 5.23 7.78 5.23 7.78 5.23 5.55 7.46 5.55 7.46 5.55 7.46 3.87 5.82 3.87 5.82ZM 20.02 0.45C 20.27 0.7 20.39 0.99 20.39 1.33 20.39 1.33 20.39 18.83 20.39 18.83 20.39 19.17 20.27 19.46 20.02 19.71 19.78 19.95 19.48 20.08 19.14 20.08 19.14 20.08 1.64 20.08 1.64 20.08 1.31 20.08 1.01 19.95 0.77 19.71 0.52 19.46 0.39 19.17 0.39 18.83 0.39 18.83 0.39 1.33 0.39 1.33 0.39 0.99 0.52 0.7 0.77 0.45 1.01 0.2 1.31 0.08 1.64 0.08 1.64 0.08 19.14 0.08 19.14 0.08 19.48 0.08 19.78 0.2 20.02 0.45ZM 19.14 1.33C 19.14 1.33 1.64 1.33 1.64 1.33 1.64 1.33 1.64 18.83 1.64 18.83 1.64 18.83 19.14 18.83 19.14 18.83 19.14 18.83 19.14 1.33 19.14 1.33Z" fill="rgb(253,184,95)"/></svg>