<?xml version="1.0" encoding="utf-8"?>
<svg xmlns="http://www.w3.org/2000/svg"
	xmlns:xlink="http://www.w3.org/1999/xlink"
	width="16px" height="21px" viewBox="0 0 16 21">
<path fillRule="evenodd" d="M 0.89 2.58C 0.89 1.88 1.14 1.28 1.62 0.8 2.1 0.32 2.69 0.08 3.39 0.08 4.1 0.08 4.69 0.32 5.17 0.8 5.65 1.28 5.89 1.88 5.89 2.58 5.89 2.58 5.89 3.83 5.89 3.83 5.89 3.83 5.89 13.83 5.89 13.83 5.89 13.83 3.39 20.08 3.39 20.08 3.39 20.08 1.09 14.3 1.09 14.3 1.09 14.3 0.89 13.83 0.89 13.83 0.89 13.83 0.89 3.83 0.89 3.83 0.89 3.83 0.89 3.83 0.89 3.83 0.89 3.83 0.89 2.58 0.89 2.58ZM 2.14 3.83C 2.14 3.83 4.64 3.83 4.64 3.83 4.64 3.83 4.64 2.58 4.64 2.58 4.64 2.24 4.52 1.95 4.27 1.7 4.03 1.45 3.73 1.33 3.39 1.33 3.06 1.33 2.76 1.45 2.52 1.7 2.27 1.95 2.14 2.24 2.14 2.58 2.14 2.58 2.14 3.83 2.14 3.83ZM 4.02 15.12C 4.02 15.12 4.29 14.49 4.29 14.49 4.29 14.49 4.29 14.41 4.29 14.41 4.29 14.41 3.39 13.98 3.39 13.98 3.39 13.98 2.5 14.41 2.5 14.41 2.5 14.41 2.5 14.49 2.5 14.49 2.5 14.49 2.77 15.12 2.77 15.12 2.77 15.12 3.39 16.72 3.39 16.72 3.39 16.72 4.02 15.12 4.02 15.12ZM 4.64 5.98C 4.64 5.98 4.64 5.23 4.64 5.23 4.64 5.23 4.64 5.08 4.64 5.08 4.64 5.08 3.39 5.08 3.39 5.08 3.39 5.08 2.14 5.08 2.14 5.08 2.14 5.08 2.14 5.23 2.14 5.23 2.14 5.23 2.14 5.98 2.14 5.98 2.14 5.98 2.14 13.2 2.14 13.2 2.14 13.2 3.39 12.58 3.39 12.58 3.39 12.58 4.64 13.2 4.64 13.2 4.64 13.2 4.64 5.98 4.64 5.98ZM 14.64 5.08C 14.64 5.08 14.64 11.33 14.64 11.33 14.98 11.33 15.28 11.45 15.52 11.7 15.77 11.95 15.89 12.24 15.89 12.58 15.89 12.58 15.89 16.33 15.89 16.33 15.89 16.67 15.77 16.96 15.52 17.21 15.28 17.45 14.98 17.58 14.64 17.58 14.64 18.28 14.4 18.87 13.92 19.36 13.44 19.84 12.85 20.08 12.14 20.08 11.44 20.08 10.85 19.84 10.37 19.36 9.89 18.87 9.64 18.28 9.64 17.58 9.64 17.58 9.64 5.08 9.64 5.08 9.64 5.08 10.15 3.79 10.15 3.79 10.15 3.79 11.32 0.78 11.32 0.78 11.32 0.78 11.36 0.78 11.36 0.78 11.39 0.57 11.47 0.4 11.62 0.27 11.76 0.14 11.94 0.08 12.14 0.08 12.56 0.08 12.82 0.29 12.93 0.7 12.93 0.7 14.14 3.79 14.14 3.79 14.14 3.79 14.64 5.08 14.64 5.08ZM 13.39 11.33C 13.39 11.33 13.39 5.08 13.39 5.08 13.39 5.08 13.32 5.08 13.32 5.08 13.32 5.08 10.97 5.08 10.97 5.08 10.97 5.08 10.89 5.08 10.89 5.08 10.89 5.08 10.89 17.58 10.89 17.58 10.89 17.92 11.02 18.21 11.27 18.46 11.51 18.7 11.81 18.83 12.14 18.83 12.48 18.83 12.78 18.7 13.02 18.46 13.27 18.21 13.39 17.92 13.39 17.58 13.39 17.58 13.39 16.33 13.39 16.33 13.39 16.33 13.39 12.58 13.39 12.58 13.39 12.58 13.39 11.33 13.39 11.33ZM 12.14 2.19C 12.14 2.19 11.48 3.83 11.48 3.83 11.48 3.83 12.81 3.83 12.81 3.83 12.81 3.83 12.14 2.19 12.14 2.19Z" fill="rgb(253,184,95)"/></svg>