<?xml version="1.0" encoding="utf-8"?>
<svg xmlns="http://www.w3.org/2000/svg"
	xmlns:xlink="http://www.w3.org/1999/xlink"
	width="19px" height="21px" viewBox="0 0 19 21">
<path fillRule="evenodd" d="M 1.02 17.21C 0.77 16.96 0.64 16.67 0.64 16.33 0.64 16.33 0.64 1.33 0.64 1.33 0.64 0.99 0.77 0.7 1.02 0.45 1.26 0.2 1.56 0.08 1.89 0.08 1.89 0.08 14.39 0.08 14.39 0.08 14.73 0.08 15.03 0.2 15.27 0.45 15.52 0.7 15.64 0.99 15.64 1.33 15.64 1.33 15.64 2.58 15.64 2.58 15.64 2.58 16.89 2.58 16.89 2.58 17.23 2.58 17.53 2.7 17.77 2.95 18.02 3.2 18.14 3.49 18.14 3.83 18.14 3.83 18.14 18.83 18.14 18.83 18.14 19.17 18.02 19.46 17.77 19.71 17.53 19.95 17.23 20.08 16.89 20.08 16.89 20.08 4.39 20.08 4.39 20.08 4.06 20.08 3.76 19.95 3.52 19.71 3.27 19.46 3.14 19.17 3.14 18.83 3.14 18.83 3.14 17.58 3.14 17.58 3.14 17.58 1.89 17.58 1.89 17.58 1.56 17.58 1.26 17.45 1.02 17.21ZM 14.39 1.33C 14.39 1.33 1.89 1.33 1.89 1.33 1.89 1.33 1.89 16.33 1.89 16.33 1.89 16.33 14.39 16.33 14.39 16.33 14.39 16.33 14.39 1.33 14.39 1.33ZM 15.64 3.83C 15.64 3.83 15.64 16.33 15.64 16.33 15.64 16.67 15.52 16.96 15.27 17.21 15.03 17.45 14.73 17.58 14.39 17.58 14.39 17.58 4.39 17.58 4.39 17.58 4.39 17.58 4.39 18.83 4.39 18.83 4.39 18.83 16.89 18.83 16.89 18.83 16.89 18.83 16.89 3.83 16.89 3.83 16.89 3.83 15.64 3.83 15.64 3.83ZM 6.27 3.83C 6.27 3.83 12.52 3.83 12.52 3.83 12.7 3.83 12.85 3.89 12.97 4 13.09 4.12 13.14 4.27 13.14 4.45 13.14 4.64 13.09 4.79 12.97 4.9 12.85 5.02 12.7 5.08 12.52 5.08 12.52 5.08 6.27 5.08 6.27 5.08 6.09 5.08 5.94 5.02 5.82 4.9 5.7 4.79 5.64 4.64 5.64 4.45 5.64 4.27 5.7 4.12 5.82 4 5.94 3.89 6.09 3.83 6.27 3.83 6.27 3.83 6.27 3.83 6.27 3.83ZM 3.32 8.65C 3.2 8.54 3.14 8.39 3.14 8.2 3.14 8.02 3.2 7.87 3.32 7.75 3.44 7.64 3.59 7.58 3.77 7.58 3.77 7.58 12.52 7.58 12.52 7.58 12.7 7.58 12.85 7.64 12.97 7.75 13.09 7.87 13.14 8.02 13.14 8.2 13.14 8.39 13.09 8.54 12.97 8.65 12.85 8.77 12.7 8.83 12.52 8.83 12.52 8.83 3.77 8.83 3.77 8.83 3.59 8.83 3.44 8.77 3.32 8.65ZM 3.32 11.15C 3.2 11.04 3.14 10.89 3.14 10.7 3.14 10.52 3.2 10.37 3.32 10.25 3.44 10.14 3.59 10.08 3.77 10.08 3.77 10.08 12.52 10.08 12.52 10.08 12.7 10.08 12.85 10.14 12.97 10.25 13.09 10.37 13.14 10.52 13.14 10.7 13.14 10.89 13.09 11.04 12.97 11.15 12.85 11.27 12.7 11.33 12.52 11.33 12.52 11.33 3.77 11.33 3.77 11.33 3.59 11.33 3.44 11.27 3.32 11.15ZM 3.32 13.65C 3.2 13.54 3.14 13.39 3.14 13.2 3.14 13.02 3.2 12.87 3.32 12.75 3.44 12.64 3.59 12.58 3.77 12.58 3.77 12.58 12.52 12.58 12.52 12.58 12.7 12.58 12.85 12.64 12.97 12.75 13.09 12.87 13.14 13.02 13.14 13.2 13.14 13.39 13.09 13.54 12.97 13.65 12.85 13.77 12.7 13.83 12.52 13.83 12.52 13.83 3.77 13.83 3.77 13.83 3.59 13.83 3.44 13.77 3.32 13.65Z" fill="rgb(253,184,95)"/></svg>